<svg version="1.2" xmlns="http://www.w3.org/2000/svg" viewBox="0 0 512 512" width="512" height="512">
	<title>Новый проект</title>
	<style>
		.s0 { fill: #da2130 } 
	</style>
	<path id="s" class="s0" aria-label="s"  d="m426.1 125.8c-22.4-65.9-72.6-110-164.4-110-97.9 0-170.5 55.6-170.5 134.2 0 64 38.1 106.9 123.3 126.9l77.4 18.1c46.8 10.9 68.9 33.3 68.9 65.3 0 39.9-42.3 72.5-108.8 72.5-58.3 0-94.9-25.1-107.6-74.9l-67.7 16.9c16.6 78.9 81.6 120.9 176.5 120.9 107.9 0 181.3-59 181.3-139 0-64.7-40.5-105.5-123.3-125.8l-68.9-16.9c-55-13.6-79.7-32-79.7-67.7 0-39.9 42.3-68.9 99.1-68.9 62.2 0 87.9 34.5 100.3 66.5z"/>
</svg>